<svg xmlns="http://www.w3.org/2000/svg" xmlns:xlink="http://www.w3.org/1999/xlink" version="1.1" height="298.9986749540493" width="298.7200012207031" viewBox="0 0 298.7200012207031 298.9986749540493"><g id="SvgjsG1011" rel="mainfill" name="main_text" xmlns:name="mainText_mainfill" fill="#000" transform="translate(48.41599988937378,110.70531396323071)"><path d="M2.256 48 c-0.44798 0 -0.672 -0.22406 -0.672 -0.67205 l0 -4.464 c0 -0.15998 0.048 -0.31997 0.144 -0.47995 l12.864 -22.128 l-12.336 0 c-0.44798 0 -0.672 -0.22402 -0.672 -0.672 l0 -4.416 c0 -0.44798 0.22402 -0.672 0.672 -0.672 l19.248 0 c0.15998 0 0.312 0.063984 0.456 0.192 s0.216 0.288 0.216 0.48 l0 4.32 c0 0.096 -0.024 0.20002 -0.072 0.312 s-0.10402 0.216 -0.168 0.312 l-12.912 22.128 l12.48 0 c0.15998 0 0.312 0.063984 0.456 0.192 s0.216 0.288 0.216 0.48 l0 4.416 c0 0.192 -0.072 0.35198 -0.216 0.48 s-0.29602 0.192 -0.456 0.192 l-19.248 0 z M45.36 48 c-0.192 0 -0.37594 -0.072048 -0.55195 -0.21605 s-0.29602 -0.312 -0.36 -0.504 l-1.872 -6.432 l-10.704 0 l-1.872 6.432 c-0.063984 0.192 -0.18398 0.36 -0.36 0.504 s-0.36 0.216 -0.552 0.216 l-4.176 0 c-0.192 0 -0.37598 -0.072 -0.552 -0.216 s-0.23203 -0.312 -0.16805 -0.504 l9.504 -32.112 c0.063984 -0.15998 0.144 -0.31997 0.24 -0.47995 s0.24 -0.24 0.432 -0.24 l5.664 0 c0.32002 0 0.56002 0.22402 0.72 0.672 l9.456 32.16 c0.063984 0.192 0.015984 0.36 -0.144 0.504 s-0.336 0.216 -0.528 0.216 l-4.176 0 z M37.2 22.752 l-3.6 12.24 l7.248 0 z M71.088 47.52 c-0.15998 0.15998 -0.32006 0.28003 -0.48005 0.36005 s-0.41597 0.12 -0.76795 0.12 l-12.528 0 c-0.192 0 -0.36802 -0.024 -0.528 -0.072 s-0.35198 -0.18398 -0.576 -0.408 l-2.736 -2.736 c-0.192 -0.192 -0.32002 -0.37598 -0.384 -0.552 s-0.096 -0.36 -0.096 -0.552 l0 -24.768 c0 -0.51202 0.15998 -0.92803 0.48 -1.248 l2.736 -2.688 c0.192 -0.192 0.39202 -0.32002 0.6 -0.384 s0.42398 -0.096 0.648 -0.096 l12.384 0 c0.25598 0 0.48 0.032016 0.672 0.096 s0.384 0.192 0.576 0.384 l2.688 2.688 c0.192 0.192 0.32798 0.36 0.408 0.504 s0.12 0.39202 0.12 0.744 l0 5.136 c0 0.44798 -0.22402 0.672 -0.672 0.672 l-4.416 0 c-0.44798 0 -0.672 -0.22402 -0.672 -0.672 l0 -2.544 c0 -0.12802 -0.048 -0.24 -0.144 -0.336 l-0.816 -0.768 c-0.15998 -0.096 -0.25598 -0.144 -0.288 -0.144 l-7.2 0 c-0.15998 0 -0.288 0.048 -0.384 0.144 l-0.816 0.768 c-0.096 0.096 -0.144 0.20798 -0.144 0.336 l0 19.632 c0 0.192 0.048 0.336 0.144 0.432 l0.672 0.672 l8.16 0 l0.672 -0.672 c0.096 -0.096 0.144 -0.20798 0.144 -0.336 l0 -2.688 c0 -0.192 0.063984 -0.36 0.192 -0.504 s0.288 -0.216 0.48 -0.216 l4.416 0 c0.192 0 0.35198 0.072 0.48 0.216 s0.192 0.312 0.192 0.504 l0 5.088 c0 0.22402 -0.032016 0.41602 -0.096 0.576 s-0.20798 0.35198 -0.432 0.576 z M97.68 48 c-0.192 0 -0.37594 -0.072048 -0.55195 -0.21605 s-0.29602 -0.312 -0.36 -0.504 l-1.872 -6.432 l-10.704 0 l-1.872 6.432 c-0.063984 0.192 -0.18398 0.36 -0.36 0.504 s-0.36 0.216 -0.552 0.216 l-4.176 0 c-0.192 0 -0.37598 -0.072 -0.552 -0.216 s-0.23203 -0.312 -0.16805 -0.504 l9.504 -32.112 c0.063984 -0.15998 0.144 -0.31997 0.24 -0.47995 s0.24 -0.24 0.432 -0.24 l5.664 0 c0.32002 0 0.56002 0.22402 0.72 0.672 l9.456 32.16 c0.063984 0.192 0.015984 0.36 -0.144 0.504 s-0.336 0.216 -0.528 0.216 l-4.176 0 z M89.52 22.752 l-3.6 12.24 l7.248 0 z  M134.928 47.52 c-0.15998 0.15998 -0.32006 0.28003 -0.48005 0.36005 s-0.41597 0.12 -0.76795 0.12 l-12.528 0 c-0.192 0 -0.36802 -0.024 -0.528 -0.072 s-0.35198 -0.18398 -0.576 -0.408 l-2.736 -2.736 c-0.192 -0.192 -0.32002 -0.37598 -0.384 -0.552 s-0.096 -0.36 -0.096 -0.552 l0 -24.768 c0 -0.51202 0.15998 -0.92803 0.48 -1.248 l2.736 -2.688 c0.192 -0.192 0.39202 -0.32002 0.6 -0.384 s0.42398 -0.096 0.648 -0.096 l12.384 0 c0.25598 0 0.48 0.032016 0.672 0.096 s0.384 0.192 0.576 0.384 l2.688 2.688 c0.192 0.192 0.32798 0.36 0.408 0.504 s0.12 0.39202 0.12 0.744 l0 5.136 c0 0.44798 -0.22402 0.672 -0.672 0.672 l-4.416 0 c-0.44798 0 -0.672 -0.22402 -0.672 -0.672 l0 -2.544 c0 -0.12802 -0.048 -0.24 -0.144 -0.336 l-0.816 -0.768 c-0.15998 -0.096 -0.25598 -0.144 -0.288 -0.144 l-7.2 0 c-0.15998 0 -0.288 0.048 -0.384 0.144 l-0.816 0.768 c-0.096 0.096 -0.144 0.20798 -0.144 0.336 l0 19.632 c0 0.192 0.048 0.336 0.144 0.432 l0.672 0.672 l8.16 0 l0.672 -0.672 c0.096 -0.096 0.144 -0.20798 0.144 -0.336 l0 -2.688 c0 -0.192 0.063984 -0.36 0.192 -0.504 s0.288 -0.216 0.48 -0.216 l4.416 0 c0.192 0 0.35198 0.072 0.48 0.216 s0.192 0.312 0.192 0.504 l0 5.088 c0 0.22402 -0.032016 0.41602 -0.096 0.576 s-0.20798 0.35198 -0.432 0.576 z M160.416 47.52 c-0.32002 0.32002 -0.864 0.48005 -1.632 0.48005 l-12.144 0 c-0.096 0 -0.24802 -0.024 -0.456 -0.072 s-0.42398 -0.18398 -0.648 -0.408 l-2.736 -2.736 c-0.22402 -0.22402 -0.36 -0.44002 -0.408 -0.648 s-0.072 -0.36 -0.072 -0.456 l0 -24.864 c0 -0.12802 0.024 -0.29602 0.072 -0.504 s0.18398 -0.42398 0.408 -0.648 l2.736 -2.688 c0.192 -0.192 0.37598 -0.32002 0.552 -0.384 s0.408 -0.096 0.696 -0.096 l12.384 0 c0.192 0 0.39998 0.032016 0.624 0.096 s0.432 0.192 0.624 0.384 l2.688 2.688 c0.15998 0.15998 0.288 0.34397 0.384 0.55195 s0.144 0.43997 0.144 0.69595 l0 24.624 c0 0.32002 -0.048 0.56803 -0.144 0.74405 s-0.22402 0.34402 -0.384 0.504 z M157.72799999999998 41.568 c0.096 -0.096 0.14395 -0.20803 0.14395 -0.33605 l0 -19.728 c0 -0.032016 -0.0080155 -0.080016 -0.024 -0.144 s-0.055968 -0.12797 -0.11995 -0.19195 l-0.816 -0.768 c-0.096 -0.096 -0.192 -0.144 -0.288 -0.144 l-7.248 0 c-0.12802 0 -0.24 0.048 -0.336 0.144 l-0.816 0.768 c-0.096 0.096 -0.144 0.20798 -0.144 0.336 l0 19.728 c0 0.12802 0.048 0.24 0.144 0.336 l0.672 0.672 l8.16 0 z M169.296 48 c-0.44798 0 -0.672 -0.22402 -0.672 -0.672 l0 -32.16 c0 -0.44798 0.22402 -0.672 0.672 -0.672 l4.416 0 c0.44798 0 0.672 0.22402 0.672 0.672 l0 32.16 c0 0.44798 -0.22402 0.672 -0.672 0.672 l-4.416 0 z M194.64 48 c-0.192 0 -0.37598 -0.072 -0.552 -0.216 s-0.29602 -0.29602 -0.36 -0.456 l-8.4 -20.736 l0 20.736 c0 0.44798 -0.22402 0.672 -0.672 0.672 l-4.416 0 c-0.44798 0 -0.672 -0.22402 -0.672 -0.672 l0 -32.16 c0 -0.44798 0.22402 -0.672 0.672 -0.672 l5.856 0 c0.32002 0 0.56002 0.22402 0.72 0.672 l7.44 19.248 l0.288 1.344 l0 -20.592 c0 -0.44798 0.22402 -0.672 0.672 -0.672 l4.416 0 c0.44798 0 0.672 0.22402 0.672 0.672 l0 32.16 c0 0.44798 -0.22402 0.672 -0.672 0.672 l-4.992 0 z"></path></g><defs id="SvgjsDefs1010"></defs><g id="SvgjsG1012" rel="mainfill" name="slogan_text" xmlns:name="sloganText_mainfill" fill="#000" transform="translate(65.27999329566956,161.5653655951582)"><path d="M0.4 19.46 l6.94 -13.86 c0.16 -0.32 0.64 -0.32 0.8 0 l6.94 13.86 c0.16 0.3 0.02 0.54 -0.32 0.54 l-1.82 0 c-0.34 0 -0.74 -0.24 -0.88 -0.56 l-0.6 -1.2 c-0.16 -0.3 -0.54 -0.54 -0.88 -0.54 l-5.68 0 c-0.34 0 -0.74 0.24 -0.88 0.56 l-0.58 1.18 c-0.16 0.32 -0.54 0.56 -0.88 0.56 l-1.82 0 c-0.34 0 -0.48 -0.24 -0.34 -0.54 z M6.26 15.26 l2.96 0 c0.34 0 0.48 -0.26 0.34 -0.56 l-1.56 -3.3 c-0.14 -0.32 -0.38 -0.32 -0.52 0 l-1.58 3.3 c-0.14 0.32 0.02 0.56 0.36 0.56 z  M26.72 8.46 l0 2.38 c0 0.34 0.28 0.62 0.62 0.62 l5.84 0 c0.34 0 0.6 0.28 0.6 0.62 l0 1.34 c0 0.34 -0.26 0.62 -0.6 0.62 l-5.84 0 c-0.34 0 -0.62 0.28 -0.62 0.62 l0 4.72 c0 0.34 -0.26 0.62 -0.6 0.62 l-1.58 0 c-0.34 0 -0.62 -0.28 -0.62 -0.62 l0 -13.4 c0 -0.34 0.28 -0.62 0.62 -0.62 l9.54 0 c0.34 0 0.6 0.28 0.6 0.62 l0 1.24 c0 0.34 -0.26 0.62 -0.6 0.62 l-6.74 0 c-0.34 0 -0.62 0.28 -0.62 0.62 z M39.16 20 l-1.58 0 c-0.34 0 -0.62 -0.28 -0.62 -0.62 l0 -13.4 c0 -0.34 0.28 -0.62 0.62 -0.62 l6.04 0 c0.74 0 1.44 0.12 2.06 0.36 c0.62 0.26 1.14 0.6 1.58 1.04 c0.44 0.46 0.8 0.98 1.04 1.6 s0.36 1.3 0.36 2.04 c0 1.1 -0.26 2.08 -0.82 2.9 c-0.44 0.66 -1 1.16 -1.66 1.52 c-0.3 0.16 -0.4 0.48 -0.18 0.74 c0.98 1.32 1.84 2.46 2.8 3.78 c0.2 0.28 0.1 0.66 -0.24 0.66 l-2.02 0 c-0.34 0 -0.78 -0.22 -0.98 -0.48 c-0.46 -0.6 -0.9 -1.22 -1.34 -1.82 l-1.32 -1.86 c-0.2 -0.28 -0.64 -0.5 -0.98 -0.5 l-1.54 0 c-0.34 0 -0.62 0.28 -0.62 0.62 l0 3.42 c0 0.34 -0.26 0.62 -0.6 0.62 z M40.379999999999995 12.86 l3.24 0 c0.24 0 0.52 -0.06 0.78 -0.16 c0.28 -0.1 0.52 -0.24 0.74 -0.46 c0.2 -0.2 0.38 -0.46 0.52 -0.76 s0.2 -0.66 0.2 -1.08 c0 -0.22 -0.02 -0.46 -0.08 -0.76 c-0.04 -0.3 -0.16 -0.58 -0.3 -0.84 c-0.16 -0.26 -0.4 -0.5 -0.68 -0.68 c-0.3 -0.18 -0.7 -0.28 -1.18 -0.28 l-3.24 0 c-0.34 0 -0.62 0.28 -0.62 0.62 l0 3.78 c0 0.34 0.28 0.62 0.62 0.62 z M54.16 8.46 l0 2.42 c0 0.34 0.28 0.62 0.62 0.62 l5.84 0 c0.34 0 0.62 0.28 0.62 0.62 l0 1.3 c0 0.34 -0.28 0.62 -0.62 0.62 l-5.84 0 c-0.34 0 -0.62 0.28 -0.62 0.62 l0 2.2 c0 0.34 0.28 0.62 0.62 0.62 l6.74 0 c0.34 0 0.62 0.28 0.62 0.62 l0 1.28 c0 0.34 -0.28 0.62 -0.62 0.62 l-9.54 0 c-0.34 0 -0.62 -0.28 -0.62 -0.62 l0 -13.4 c0 -0.34 0.28 -0.62 0.62 -0.62 l9.54 0 c0.34 0 0.62 0.28 0.62 0.62 l0 1.24 c0 0.34 -0.28 0.62 -0.62 0.62 l-6.74 0 c-0.34 0 -0.62 0.28 -0.62 0.62 z M64.78 17.58 l0.84 -1.24 c0.18 -0.28 0.56 -0.34 0.84 -0.16 c0.58 0.36 1.16 0.68 1.76 0.96 c0.78 0.38 1.6 0.56 2.46 0.56 c0.46 0 0.86 -0.06 1.2 -0.18 c0.34 -0.1 0.64 -0.26 0.88 -0.44 s0.42 -0.38 0.54 -0.62 c0.12 -0.22 0.18 -0.46 0.18 -0.68 c0 -0.3 -0.1 -0.54 -0.28 -0.76 c-0.18 -0.2 -0.42 -0.36 -0.72 -0.5 s-0.64 -0.24 -1.06 -0.34 c-0.4 -0.1 -0.82 -0.18 -1.26 -0.26 c-0.3 -0.06 -0.64 -0.12 -1.02 -0.2 c-0.38 -0.06 -0.78 -0.16 -1.2 -0.3 c-0.42 -0.12 -0.82 -0.28 -1.22 -0.5 c-0.4 -0.2 -0.76 -0.46 -1.08 -0.78 c-0.32 -0.3 -0.58 -0.68 -0.78 -1.12 c-0.18 -0.42 -0.28 -0.94 -0.28 -1.52 c0 -0.86 0.18 -1.56 0.52 -2.14 c0.34 -0.56 0.78 -1 1.32 -1.34 c0.54 -0.32 1.14 -0.54 1.8 -0.68 s1.3 -0.2 1.92 -0.2 s1.16 0.04 1.64 0.12 s0.92 0.2 1.34 0.34 c0.42 0.16 0.82 0.36 1.2 0.58 c0.26 0.16 0.5 0.32 0.78 0.48 c0.28 0.2 0.34 0.58 0.14 0.86 l-0.84 1.2 c-0.2 0.28 -0.58 0.34 -0.88 0.16 c-0.5 -0.32 -1 -0.58 -1.48 -0.76 c-0.64 -0.26 -1.32 -0.38 -2.02 -0.38 c-0.24 0 -0.52 0.02 -0.82 0.08 s-0.6 0.16 -0.88 0.3 c-0.26 0.14 -0.5 0.3 -0.68 0.5 c-0.18 0.22 -0.26 0.46 -0.26 0.76 s0.1 0.54 0.32 0.74 s0.48 0.36 0.82 0.5 s0.7 0.24 1.1 0.34 s0.78 0.18 1.16 0.28 c0.28 0.06 0.6 0.14 0.98 0.2 s0.78 0.16 1.18 0.28 c0.22 0.06 0.44 0.14 0.66 0.22 c0.32 0.14 0.8 0.38 1.08 0.58 c0.2 0.12 0.38 0.28 0.54 0.44 c0.32 0.32 0.58 0.7 0.76 1.16 c0.2 0.46 0.3 1.02 0.3 1.68 c0 0.76 -0.14 1.42 -0.4 1.98 s-0.64 1.02 -1.14 1.38 c-0.5 0.38 -1.08 0.66 -1.76 0.84 s-1.44 0.28 -2.26 0.28 c-0.76 0 -1.44 -0.06 -2.02 -0.18 c-0.58 -0.1 -1.1 -0.26 -1.58 -0.46 c-0.48 -0.18 -0.94 -0.42 -1.36 -0.68 c-0.26 -0.16 -0.54 -0.34 -0.82 -0.54 c-0.28 -0.18 -0.34 -0.56 -0.16 -0.84 z M91.42 5.98 l0 13.4 c0 0.34 -0.28 0.62 -0.62 0.62 l-1.56 0 c-0.34 0 -0.62 -0.28 -0.62 -0.62 l0 -4.58 c0 -0.34 -0.28 -0.62 -0.62 -0.62 l-5.98 0 c-0.34 0 -0.62 0.28 -0.62 0.62 l0 4.58 c0 0.34 -0.28 0.62 -0.62 0.62 l-1.56 0 c-0.34 0 -0.62 -0.28 -0.62 -0.62 l0 -13.4 c0 -0.34 0.28 -0.62 0.62 -0.62 l1.56 0 c0.34 0 0.62 0.28 0.62 0.62 l0 5.1 c0 0.34 0.28 0.62 0.62 0.62 l5.98 0 c0.34 0 0.62 -0.28 0.62 -0.62 l0 -5.1 c0 -0.34 0.28 -0.62 0.62 -0.62 l1.56 0 c0.34 0 0.62 0.28 0.62 0.62 z  M101.22 17.58 l0.84 -1.24 c0.18 -0.28 0.56 -0.34 0.84 -0.16 c0.58 0.36 1.16 0.68 1.76 0.96 c0.78 0.38 1.6 0.56 2.46 0.56 c0.46 0 0.86 -0.06 1.2 -0.18 c0.34 -0.1 0.64 -0.26 0.88 -0.44 s0.42 -0.38 0.54 -0.62 c0.12 -0.22 0.18 -0.46 0.18 -0.68 c0 -0.3 -0.1 -0.54 -0.28 -0.76 c-0.18 -0.2 -0.42 -0.36 -0.72 -0.5 s-0.64 -0.24 -1.06 -0.34 c-0.4 -0.1 -0.82 -0.18 -1.26 -0.26 c-0.3 -0.06 -0.64 -0.12 -1.02 -0.2 c-0.38 -0.06 -0.78 -0.16 -1.2 -0.3 c-0.42 -0.12 -0.82 -0.28 -1.22 -0.5 c-0.4 -0.2 -0.76 -0.46 -1.08 -0.78 c-0.32 -0.3 -0.58 -0.68 -0.78 -1.12 c-0.18 -0.42 -0.28 -0.94 -0.28 -1.52 c0 -0.86 0.18 -1.56 0.52 -2.14 c0.34 -0.56 0.78 -1 1.32 -1.34 c0.54 -0.32 1.14 -0.54 1.8 -0.68 s1.3 -0.2 1.92 -0.2 s1.16 0.04 1.64 0.12 s0.92 0.2 1.34 0.34 c0.42 0.16 0.82 0.36 1.2 0.58 c0.26 0.16 0.5 0.32 0.78 0.48 c0.28 0.2 0.34 0.58 0.14 0.86 l-0.84 1.2 c-0.2 0.28 -0.58 0.34 -0.88 0.16 c-0.5 -0.32 -1 -0.58 -1.48 -0.76 c-0.64 -0.26 -1.32 -0.38 -2.02 -0.38 c-0.24 0 -0.52 0.02 -0.82 0.08 s-0.6 0.16 -0.88 0.3 c-0.26 0.14 -0.5 0.3 -0.68 0.5 c-0.18 0.22 -0.26 0.46 -0.26 0.76 s0.1 0.54 0.32 0.74 s0.48 0.36 0.82 0.5 s0.7 0.24 1.1 0.34 s0.78 0.18 1.16 0.28 c0.28 0.06 0.6 0.14 0.98 0.2 s0.78 0.16 1.18 0.28 c0.22 0.06 0.44 0.14 0.66 0.22 c0.32 0.14 0.8 0.38 1.08 0.58 c0.2 0.12 0.38 0.28 0.54 0.44 c0.32 0.32 0.58 0.7 0.76 1.16 c0.2 0.46 0.3 1.02 0.3 1.68 c0 0.76 -0.14 1.42 -0.4 1.98 s-0.64 1.02 -1.14 1.38 c-0.5 0.38 -1.08 0.66 -1.76 0.84 s-1.44 0.28 -2.26 0.28 c-0.76 0 -1.44 -0.06 -2.02 -0.18 c-0.58 -0.1 -1.1 -0.26 -1.58 -0.46 c-0.48 -0.18 -0.94 -0.42 -1.36 -0.68 c-0.26 -0.16 -0.54 -0.34 -0.82 -0.54 c-0.28 -0.18 -0.34 -0.56 -0.16 -0.84 z M124.96 7.84 l-2.94 0 c-0.34 0 -0.62 0.28 -0.62 0.62 l0 10.92 c0 0.34 -0.28 0.62 -0.62 0.62 l-1.56 0 c-0.34 0 -0.62 -0.28 -0.62 -0.62 l0 -10.92 c0 -0.34 -0.28 -0.62 -0.62 -0.62 l-2.96 0 c-0.34 0 -0.62 -0.28 -0.62 -0.62 l0 -1.24 c0 -0.34 0.28 -0.62 0.62 -0.62 l9.94 0 c0.34 0 0.62 0.28 0.62 0.62 l0 1.24 c0 0.34 -0.28 0.62 -0.62 0.62 z M126.3 19.46 l6.94 -13.86 c0.16 -0.32 0.64 -0.32 0.8 0 l6.94 13.86 c0.16 0.3 0.02 0.54 -0.32 0.54 l-1.82 0 c-0.34 0 -0.74 -0.24 -0.88 -0.56 l-0.6 -1.2 c-0.16 -0.3 -0.54 -0.54 -0.88 -0.54 l-5.68 0 c-0.34 0 -0.74 0.24 -0.88 0.56 l-0.58 1.18 c-0.16 0.32 -0.54 0.56 -0.88 0.56 l-1.82 0 c-0.34 0 -0.48 -0.24 -0.34 -0.54 z M132.16 15.26 l2.96 0 c0.34 0 0.48 -0.26 0.34 -0.56 l-1.56 -3.3 c-0.14 -0.32 -0.38 -0.32 -0.52 0 l-1.58 3.3 c-0.14 0.32 0.02 0.56 0.36 0.56 z M145.18 20 l-1.58 0 c-0.34 0 -0.62 -0.28 -0.62 -0.62 l0 -13.4 c0 -0.34 0.28 -0.62 0.62 -0.62 l6.04 0 c0.74 0 1.44 0.12 2.06 0.36 c0.62 0.26 1.14 0.6 1.58 1.04 c0.44 0.46 0.8 0.98 1.04 1.6 s0.36 1.3 0.36 2.04 c0 1.1 -0.26 2.08 -0.82 2.9 c-0.44 0.66 -1 1.16 -1.66 1.52 c-0.3 0.16 -0.4 0.48 -0.18 0.74 c0.98 1.32 1.84 2.46 2.8 3.78 c0.2 0.28 0.1 0.66 -0.24 0.66 l-2.02 0 c-0.34 0 -0.78 -0.22 -0.98 -0.48 c-0.46 -0.6 -0.9 -1.22 -1.34 -1.82 l-1.32 -1.86 c-0.2 -0.28 -0.64 -0.5 -0.98 -0.5 l-1.54 0 c-0.34 0 -0.62 0.28 -0.62 0.62 l0 3.42 c0 0.34 -0.26 0.62 -0.6 0.62 z M146.4 12.86 l3.24 0 c0.24 0 0.52 -0.06 0.78 -0.16 c0.28 -0.1 0.52 -0.24 0.74 -0.46 c0.2 -0.2 0.38 -0.46 0.52 -0.76 s0.2 -0.66 0.2 -1.08 c0 -0.22 -0.02 -0.46 -0.08 -0.76 c-0.04 -0.3 -0.16 -0.58 -0.3 -0.84 c-0.16 -0.26 -0.4 -0.5 -0.68 -0.68 c-0.3 -0.18 -0.7 -0.28 -1.18 -0.28 l-3.24 0 c-0.34 0 -0.62 0.28 -0.62 0.62 l0 3.78 c0 0.34 0.28 0.62 0.62 0.62 z M167.28 7.84 l-2.94 0 c-0.34 0 -0.62 0.28 -0.62 0.62 l0 10.92 c0 0.34 -0.28 0.62 -0.62 0.62 l-1.56 0 c-0.34 0 -0.62 -0.28 -0.62 -0.62 l0 -10.92 c0 -0.34 -0.28 -0.62 -0.62 -0.62 l-2.96 0 c-0.34 0 -0.62 -0.28 -0.62 -0.62 l0 -1.24 c0 -0.34 0.28 -0.62 0.62 -0.62 l9.94 0 c0.34 0 0.62 0.28 0.62 0.62 l0 1.24 c0 0.34 -0.28 0.62 -0.62 0.62 z"></path></g><g id="SvgjsG1013" transform="translate(0,0) scale(2.7865672548939506)" rel="mainfill" name="outline_container" xmlns:name="outlineContainer_mainfill" fill="#000"><path xmlns="http://www.w3.org/2000/svg" d="M53.6 107.3c-14.2 0-25.1-10.9-33.9-19.7S0 67.8 0 53.6s10.9-25.1 19.7-33.9S39.5 0 53.6 0s25.2 10.9 33.9 19.7 19.7 19.7 19.7 33.9-10.9 25.2-19.6 33.9-19.8 19.8-34 19.8zm0-106.1c-13.7 0-24 10.3-33.1 19.4S1.2 40 1.2 53.6s10.3 24 19.4 33.1 19.4 19.4 33 19.4 24-10.3 33.1-19.4 19.4-19.4 19.4-33.1-10.3-24-19.4-33.1S67.3 1.2 53.6 1.2z" fill=""></path></g></svg>